# xmcd
#
# Track frame offsets: 
#        150
#        21717
#        39340
#        54315
#        72817
#        94767
#        113977
#        129870
#        145455
#        161852
#        178309
#        194825
#
# Disc length: 2958 seconds
#
# Revision: 2
# Processed by: cddbd v1.5.2PL0 Copyright (c) Steve Scherf et al.
# Submitted via: ExactAudioCopyFreeDBPlugin 1.0
#
DISCID=b50b8c0c
DTITLE=The Lanterns - Luminate Yer Heid
DYEAR=1999
DGENRE=Pop
TTITLE0=HighRise Town
TTITLE1=Winter In My Heart
TTITLE2=Big Boys Cry
TTITLE3=Coriander
TTITLE4=Sensible Shoes
TTITLE5=It's Not Thursday Every Day
TTITLE6=Isabel
TTITLE7=Maybe I Do
TTITLE8=Loneliness
TTITLE9=Infidelity
TTITLE10=Orange Crush Blue
TTITLE11=Nobody Knows
EXTD=
EXTT0=
EXTT1=
EXTT2=
EXTT3=
EXTT4=
EXTT5=
EXTT6=
EXTT7=
EXTT8=
EXTT9=
EXTT10=
EXTT11=
PLAYORDER=
